<svg xmlns="http://www.w3.org/2000/svg" viewBox="0 0 720 42.4">
<style>
path { display: none; }
path:target { display: inline; }
</style>
<path d="M55,55.9H775V88.4a42.6,42.6,0,0,0-8.2-3.6c-7.4-2.3-14.8-5.1-22.4-6.1-16-2.2-31.1.9-45.3,8.5S670.7,98,655,98.2c-19,.4-36.3-4.8-52.7-14-5.2-2.9-11-6-16.7-6.4-20.1-1.2-40.2-2.7-59.6,6.7S483.8,97.1,461.9,88c-7.8-3.2-15.5-7-23.6-9.3-20.2-5.8-40-5-59.1,4.6-7.9,3.9-15.7,8.3-24.1,10.7-25.7,7.5-50.9,5.4-75-7s-47.4-11.9-71.4-.4c-8.1,4-16.7,7.6-25.5,9.4-24.9,5.2-48.7,1.9-70.7-11.2A53.7,53.7,0,0,0,81,77c-8.5.5-17.1.1-26,.1Z" transform="translate(-55 -55.9)" fill="#f5fcfe" id="type1"/>
<path d="M55,55.9H775V88.4a42.6,42.6,0,0,0-8.2-3.6c-7.4-2.3-14.8-5.1-22.4-6.1-16-2.2-31.1.9-45.3,8.5S670.7,98,655,98.2c-19,.4-36.3-4.8-52.7-14-5.2-2.9-11-6-16.7-6.4-20.1-1.2-40.2-2.7-59.6,6.7S483.8,97.1,461.9,88c-7.8-3.2-15.5-7-23.6-9.3-20.2-5.8-40-5-59.1,4.6-7.9,3.9-15.7,8.3-24.1,10.7-25.7,7.5-50.9,5.4-75-7s-47.4-11.9-71.4-.4c-8.1,4-16.7,7.6-25.5,9.4-24.9,5.2-48.7,1.9-70.7-11.2A53.7,53.7,0,0,0,81,77c-8.5.5-17.1.1-26,.1Z" transform="translate(-55 -55.9)" fill="#e2f7fd" id="type2"/>
<path d="M55,55.9H775V88.4a42.6,42.6,0,0,0-8.2-3.6c-7.4-2.3-14.8-5.1-22.4-6.1-16-2.2-31.1.9-45.3,8.5S670.7,98,655,98.2c-19,.4-36.3-4.8-52.7-14-5.2-2.9-11-6-16.7-6.4-20.1-1.2-40.2-2.7-59.6,6.7S483.8,97.1,461.9,88c-7.8-3.2-15.5-7-23.6-9.3-20.2-5.8-40-5-59.1,4.6-7.9,3.9-15.7,8.3-24.1,10.7-25.7,7.5-50.9,5.4-75-7s-47.4-11.9-71.4-.4c-8.1,4-16.7,7.6-25.5,9.4-24.9,5.2-48.7,1.9-70.7-11.2A53.7,53.7,0,0,0,81,77c-8.5.5-17.1.1-26,.1Z" transform="translate(-55 -55.9)" fill="#000" fill-opacity="0.8" id="type3"/>
</svg>
